HIERARCHY
ROOT Hips
{
  OFFSET 5.80788e-005 67.184 3.4734
  CHANNELS 6 Xposition Yposition Zposition Zrotation Xrotation Yrotation
  JOINT Chest
  {
    OFFSET 0 8.7983 -4.7612
    CHANNELS 6 Xposition Yposition Zposition Zrotation Xrotation Yrotation
    JOINT Chest2
    {
      OFFSET 0 8.0291 0.4195
      CHANNELS 6 Xposition Yposition Zposition Zrotation Xrotation Yrotation
      JOINT Chest3
      {
        OFFSET 0 9.9351 -2.2114
        CHANNELS 6 Xposition Yposition Zposition Zrotation Xrotation Yrotation
        JOINT Neck
        {
          OFFSET 0 22.3885 -0.4656
          CHANNELS 6 Xposition Yposition Zposition Zrotation Xrotation Yrotation
          JOINT Head
          {
            OFFSET -0.0001 12.643 3.4389
            CHANNELS 6 Xposition Yposition Zposition Zrotation Xrotation Yrotation
            End Site
            {
              OFFSET 0.0001 17.6655 0.5274
            }
          }
        }
        JOINT LeftCollar
        {
          OFFSET 2.2603 21.606 7.4023
          CHANNELS 6 Xposition Yposition Zposition Zrotation Xrotation Yrotation
          JOINT LeftShoulder
          {
            OFFSET 13.5163 -1.1332 -5.0146
            CHANNELS 6 Xposition Yposition Zposition Zrotation Xrotation Yrotation
            JOINT LeftElbow
            {
              OFFSET -0.0995 -28.05 -0.2431
              CHANNELS 6 Xposition Yposition Zposition Zrotation Xrotation Yrotation
              JOINT LeftWrist
              {
                OFFSET 0.0679 -23.3996 -0.1402
                CHANNELS 6 Xposition Yposition Zposition Zrotation Xrotation Yrotation
                JOINT LeftFinger1
                {
                  OFFSET 0.7932 -9.069 2.5189
                  CHANNELS 6 Xposition Yposition Zposition Zrotation Xrotation Yrotation
                  JOINT LeftFinger11
                  {
                    OFFSET -0.8272 -3.3923 0.5977
                    CHANNELS 6 Xposition Yposition Zposition Zrotation Xrotation Yrotation
                    JOINT LeftFinger12
                    {
                      OFFSET -0.5649 -2.3158 0.4082
                      CHANNELS 6 Xposition Yposition Zposition Zrotation Xrotation Yrotation
                      End Site
                      {
                        OFFSET -0.4919 -1.6479 0.2673
                      }
                    }
                  }
                }
                JOINT LeftFinger2
                {
                  OFFSET 0.9159 -9.2044 0.2193
                  CHANNELS 6 Xposition Yposition Zposition Zrotation Xrotation Yrotation
                  JOINT LeftFinger21
                  {
                    OFFSET 0.0117 -4.1944 -0.0248
                    CHANNELS 6 Xposition Yposition Zposition Zrotation Xrotation Yrotation
                    JOINT LeftFinger22
                    {
                      OFFSET 0.0071 -2.3249 -0.0142
                      CHANNELS 6 Xposition Yposition Zposition Zrotation Xrotation Yrotation
                      End Site
                      {
                        OFFSET -0.1475 -2.0882 0.0028
                      }
                    }
                  }
                }
                JOINT LeftFinger3
                {
                  OFFSET 0.6113 -8.7231 -2.0637
                  CHANNELS 6 Xposition Yposition Zposition Zrotation Xrotation Yrotation
                  JOINT LeftFinger31
                  {
                    OFFSET -0.1927 -3.8059 -0.2383
                    CHANNELS 6 Xposition Yposition Zposition Zrotation Xrotation Yrotation
                    JOINT LeftFinger32
                    {
                      OFFSET -0.1091 -2.1688 -0.1362
                      CHANNELS 6 Xposition Yposition Zposition Zrotation Xrotation Yrotation
                      End Site
                      {
                        OFFSET -0.2358 -1.9176 -0.0906
                      }
                    }
                  }
                }
                JOINT LeftFinger4
                {
                  OFFSET -0.6151 -8.0947 -3.5641
                  CHANNELS 6 Xposition Yposition Zposition Zrotation Xrotation Yrotation
                  JOINT LeftFinger41
                  {
                    OFFSET -0.4882 -2.341 -0.6462
                    CHANNELS 6 Xposition Yposition Zposition Zrotation Xrotation Yrotation
                    JOINT LeftFinger42
                    {
                      OFFSET -0.3575 -1.7167 -0.4742
                      CHANNELS 6 Xposition Yposition Zposition Zrotation Xrotation Yrotation
                      End Site
                      {
                        OFFSET -0.4187 -1.5237 -0.3496
                      }
                    }
                  }
                }
                JOINT LeftFinger0
                {
                  OFFSET -1.42 -1.8761 1.4223
                  CHANNELS 6 Xposition Yposition Zposition Zrotation Xrotation Yrotation
                  JOINT LeftFinger01
                  {
                    OFFSET -1.1471 -3.4929 2.6334
                    CHANNELS 6 Xposition Yposition Zposition Zrotation Xrotation Yrotation
                    JOINT LeftFinger02
                    {
                      OFFSET -0.823 -2.3 1.6571
                      CHANNELS 6 Xposition Yposition Zposition Zrotation Xrotation Yrotation
                      End Site
                      {
                        OFFSET -0.5822 -1.6914 1.1582
                      }
                    }
                  }
                }
              }
            }
          }
        }
        JOINT RightCollar
        {
          OFFSET -2.2603 21.606 7.4023
          CHANNELS 6 Xposition Yposition Zposition Zrotation Xrotation Yrotation
          JOINT RightShoulder
          {
            OFFSET -13.5187 -1.1334 -5.0155
            CHANNELS 6 Xposition Yposition Zposition Zrotation Xrotation Yrotation
            JOINT RightElbow
            {
              OFFSET 0.0994 -28.0499 -0.2431
              CHANNELS 6 Xposition Yposition Zposition Zrotation Xrotation Yrotation
              JOINT RightWrist
              {
                OFFSET -0.0679 -23.3996 -0.1402
                CHANNELS 6 Xposition Yposition Zposition Zrotation Xrotation Yrotation
                JOINT RightFinger1
                {
                  OFFSET -0.7932 -9.0691 2.5189
                  CHANNELS 6 Xposition Yposition Zposition Zrotation Xrotation Yrotation
                  JOINT RightFinger11
                  {
                    OFFSET 0.8272 -3.3923 0.5977
                    CHANNELS 6 Xposition Yposition Zposition Zrotation Xrotation Yrotation
                    JOINT RightFinger12
                    {
                      OFFSET 0.565 -2.3158 0.4082
                      CHANNELS 6 Xposition Yposition Zposition Zrotation Xrotation Yrotation
                      End Site
                      {
                        OFFSET 0.4919 -1.6479 0.2673
                      }
                    }
                  }
                }
                JOINT RightFinger2
                {
                  OFFSET -0.916 -9.2044 0.2193
                  CHANNELS 6 Xposition Yposition Zposition Zrotation Xrotation Yrotation
                  JOINT RightFinger21
                  {
                    OFFSET -0.0117 -4.1944 -0.0248
                    CHANNELS 6 Xposition Yposition Zposition Zrotation Xrotation Yrotation
                    JOINT RightFinger22
                    {
                      OFFSET -0.0071 -2.3249 -0.0142
                      CHANNELS 6 Xposition Yposition Zposition Zrotation Xrotation Yrotation
                      End Site
                      {
                        OFFSET 0.1475 -2.0882 0.0028
                      }
                    }
                  }
                }
                JOINT RightFinger3
                {
                  OFFSET -0.6113 -8.7231 -2.0637
                  CHANNELS 6 Xposition Yposition Zposition Zrotation Xrotation Yrotation
                  JOINT RightFinger31
                  {
                    OFFSET 0.1927 -3.8059 -0.2383
                    CHANNELS 6 Xposition Yposition Zposition Zrotation Xrotation Yrotation
                    JOINT RightFinger32
                    {
                      OFFSET 0.1091 -2.1688 -0.1362
                      CHANNELS 6 Xposition Yposition Zposition Zrotation Xrotation Yrotation
                      End Site
                      {
                        OFFSET 0.2358 -1.9176 -0.0906
                      }
                    }
                  }
                }
                JOINT RightFinger4
                {
                  OFFSET 0.6151 -8.0947 -3.564
                  CHANNELS 6 Xposition Yposition Zposition Zrotation Xrotation Yrotation
                  JOINT RightFinger41
                  {
                    OFFSET 0.4882 -2.341 -0.6462
                    CHANNELS 6 Xposition Yposition Zposition Zrotation Xrotation Yrotation
                    JOINT RightFinger42
                    {
                      OFFSET 0.3574 -1.7166 -0.4742
                      CHANNELS 6 Xposition Yposition Zposition Zrotation Xrotation Yrotation
                      End Site
                      {
                        OFFSET 0.4187 -1.5237 -0.3496
                      }
                    }
                  }
                }
                JOINT RightFinger0
                {
                  OFFSET 1.4199 -1.8761 1.4221
                  CHANNELS 6 Xposition Yposition Zposition Zrotation Xrotation Yrotation
                  JOINT RightFinger01
                  {
                    OFFSET 1.1472 -3.4929 2.6336
                    CHANNELS 6 Xposition Yposition Zposition Zrotation Xrotation Yrotation
                    JOINT RightFinger02
                    {
                      OFFSET 0.8229 -2.3 1.6571
                      CHANNELS 6 Xposition Yposition Zposition Zrotation Xrotation Yrotation
                      End Site
                      {
                        OFFSET 0.5822 -1.6914 1.1582
                      }
                    }
                  }
                }
              }
            }
          }
        }
      }
    }
  }
  JOINT RightHip
  {
    OFFSET -9.412 3.9771 -0.7758
    CHANNELS 6 Xposition Yposition Zposition Zrotation Xrotation Yrotation
    JOINT RightKnee
    {
      OFFSET -0.7531 -40.938 0
      CHANNELS 6 Xposition Yposition Zposition Zrotation Xrotation Yrotation
      JOINT RightAnkle
      {
        OFFSET 0 -40.1986 0
        CHANNELS 6 Xposition Yposition Zposition Zrotation Xrotation Yrotation
        JOINT RightToe
        {
          OFFSET 0 -4.4182 9.239
          CHANNELS 6 Xposition Yposition Zposition Zrotation Xrotation Yrotation
          End Site
          {
            OFFSET 0 0 6.1981
          }
        }
      }
    }
  }
  JOINT LeftHip
  {
    OFFSET 9.4119 3.9773 -0.7758
    CHANNELS 6 Xposition Yposition Zposition Zrotation Xrotation Yrotation
    JOINT LeftKnee
    {
      OFFSET 0.7532 -40.9383 0
      CHANNELS 6 Xposition Yposition Zposition Zrotation Xrotation Yrotation
      JOINT LeftAnkle
      {
        OFFSET 0 -40.1986 0
        CHANNELS 6 Xposition Yposition Zposition Zrotation Xrotation Yrotation
        JOINT LeftToe
        {
          OFFSET 0 -4.4182 9.239
          CHANNELS 6 Xposition Yposition Zposition Zrotation Xrotation Yrotation
          End Site
          {
            OFFSET 0 0 6.1981
          }
        }
      }
    }
  }
}
MOTION
Frames:	4
Frame Time:	0.0333333
5.80788e-005 67.184 3.4734 0 0 -0 0 8.7983 -4.7612 0 0 -0 0 8.0291 0.4195 0 0 -0 0 9.9351 -2.2114 0 0 -0 0 22.3885 -0.4656 0 0 -0 -0.0001 12.643 3.4389 0 0 -0 2.2603 21.606 7.4023 0 0 -12.5014 13.5163 -1.1332 -5.0146 88.1196 14.2451 10.6914 -0.0995 -28.05 -0.2431 -0.00160068 -0.00239207 0.000740045 0.0679 -23.3996 -0.1402 -8.4365e-005 7.00714e-005 -9.52055e-007 0.7932 -9.069 2.5189 9.93923e-017 -1.98785e-016 -1.59028e-015 -0.8272 -3.3923 0.5977 9.93923e-017 -5.96354e-016 -1.59028e-015 -0.5649 -2.3158 0.4082 -9.93923e-017 -5.96354e-016 -1.59028e-015 0.9159 -9.2044 0.2193 9.93923e-017 -1.98785e-016 -1.59028e-015 0.0117 -4.1944 -0.0248 -0.0128176 0.00232552 8.52707e-005 0.0071 -2.3249 -0.0142 9.93923e-017 5.96354e-016 -0 0.6113 -8.7231 -2.0637 9.93923e-017 -1.98785e-016 -1.59028e-015 -0.1927 -3.8059 -0.2383 -0.0160551 0.00299681 0.000857156 -0.1091 -2.1688 -0.1362 -2.48481e-016 0 3.18055e-015 -0.6151 -8.0947 -3.5641 9.93923e-017 -1.98785e-016 -1.59028e-015 -0.4882 -2.341 -0.6462 -0.0125865 0.0031206 0.00282719 -0.3575 -1.7167 -0.4742 0 1.98785e-016 -0 -1.42 -1.8761 1.4223 9.93923e-017 -1.98785e-016 -1.59028e-015 -1.1471 -3.4929 2.6334 9.93923e-017 -5.96354e-016 -1.59028e-015 -0.823 -2.3 1.6571 -9.93923e-017 -5.96354e-016 -1.59028e-015 -2.2603 21.606 7.4023 -0.865644 0.16582 7.03859 -13.5187 -1.1334 -5.0155 -88.0329 10.2057 -10.5567 0.0994 -28.0499 -0.2431 0.0015593 -0.00248883 -0.000788628 -0.0679 -23.3996 -0.1402 7.87605e-005 4.10553e-005 1.24965e-005 -0.7932 -9.0691 2.5189 -3.97569e-016 -7.95139e-016 3.18055e-015 0.8272 -3.3923 0.5977 -1.98785e-016 -3.97569e-016 3.18055e-015 0.565 -2.3158 0.4082 -1.98785e-016 0 3.18055e-015 -0.916 -9.2044 0.2193 -3.97569e-016 -7.95139e-016 3.18055e-015 -0.0117 -4.1944 -0.0248 0.0129473 0.00231697 -8.70038e-005 -0.0071 -2.3249 -0.0142 9.93923e-017 -7.95139e-016 1.59028e-015 -0.6113 -8.7231 -2.0637 -3.97569e-016 -7.95139e-016 3.18055e-015 0.1927 -3.8059 -0.2383 0.0163314 0.00303369 -0.000872333 0.1091 -2.1688 -0.1362 3.97569e-016 7.95139e-016 -3.18055e-015 0.6151 -8.0947 -3.564 -3.97569e-016 -7.95139e-016 3.18055e-015 0.4882 -2.341 -0.6462 0.0145763 0.00367772 -0.00326275 0.3574 -1.7166 -0.4742 9.93923e-017 -3.97569e-016 -0 1.4199 -1.8761 1.4221 -3.97569e-016 -7.95139e-016 3.18055e-015 1.1472 -3.4929 2.6336 -1.98785e-016 -3.97569e-016 3.18055e-015 0.8229 -2.3 1.6571 -1.98785e-016 0 3.18055e-015 -9.412 3.9771 -0.7758 3.42485 1.36937 -0.0640303 -0.7531 -40.938 0 0.000136572 0.69354 0.00145564 1.77636e-015 -40.1986 -1.11022e-016 -3.42573 -2.06297 -0.0607933 8.88178e-016 -4.4182 9.239 -3.19502e-024 0 -1.48106e-024 9.4119 3.9773 -0.7758 -3.42498 1.36123 0.0639712 0.7532 -40.9383 2.22045e-016 -6.769e-005 0.712612 -0.0012277 8.88179e-016 -40.1986 0 3.42582 -2.07388 0.0612819 -8.88178e-016 -4.4182 9.239 2.55305e-023 0 -2.31416e-026 
39.8401 36.0087 21.2402 -179.996 51.0033 -1.64957e-007 0 8.7983 -4.7612 -0.169937 -1.4178 0.139931 -7.10543e-015 8.0291 0.4195 -0.336565 -2.83599 0.275781 7.10543e-015 9.9351 -2.2114 -0.336565 -2.83599 0.275781 7.10543e-015 22.3885 -0.4656 1.87439e-005 15.9936 -1.30157e-005 -0.0001 12.643 3.4389 -1.26781e-007 10.996 -2.11711e-007 2.2603 21.606 7.4023 6.16074 1.44725 5.38294 13.5163 -1.1332 -5.0146 99.599 31.7352 -53.3973 -0.0995 -28.05 -0.2431 -39.3989 -32.4019 -75.9565 0.0679 -23.3996 -0.1402 1.74912 8.04733 1.64866 0.7932 -9.069 2.5189 3.18055e-015 -3.18055e-015 9.54166e-015 -0.8272 -3.3923 0.5977 -1.18645e-006 3.18055e-015 -9.48394e-007 -0.5649 -2.3158 0.4082 8.46159e-006 -3.61704e-006 -2.99945e-006 0.9159 -9.2044 0.2193 3.18055e-015 -3.18055e-015 9.54166e-015 0.0117 -4.1944 -0.0248 -0.0128234 0.00232328 9.60071e-005 0.0071 -2.3249 -0.0142 4.88408e-006 4.38172e-006 -1.01687e-005 0.6113 -8.7231 -2.0637 3.18055e-015 -3.18055e-015 9.54166e-015 -0.1927 -3.8059 -0.2383 -0.0160469 0.00299578 0.000860184 -0.1091 -2.1688 -0.1362 -3.02538e-022 5.45005e-006 3.18055e-015 -0.6151 -8.0947 -3.5641 3.18055e-015 -3.18055e-015 9.54166e-015 -0.4882 -2.341 -0.6462 -0.0125324 0.0030969 0.00281238 -0.3575 -1.7167 -0.4742 9.14209e-009 9.498e-006 2.16228e-006 -1.42 -1.8761 1.4223 3.18055e-015 -3.18055e-015 9.54166e-015 -1.1471 -3.4929 2.6334 -1.18645e-006 3.18055e-015 -9.48394e-007 -0.823 -2.3 1.6571 8.46159e-006 -3.61704e-006 -2.99945e-006 -2.2603 21.606 7.4023 -6.95442 1.87521 -10.842 -13.5187 -1.1334 -5.0155 -99.9385 26.366 52.9835 0.0994 -28.0499 -0.2431 39.0802 -34.1267 75.9477 -0.0679 -23.3996 -0.1402 -1.71583 8.0694 -1.55162 -0.7932 -9.0691 2.5189 -1.10403e-006 -1.51915e-006 -3.17161e-006 0.8272 -3.3923 0.5977 -6.36111e-015 -3.18055e-015 -3.18055e-015 0.565 -2.3158 0.4082 -1.07191e-005 -5.55048e-006 2.68601e-006 -0.916 -9.2044 0.2193 -1.10403e-006 -1.51915e-006 -3.17161e-006 -0.0117 -4.1944 -0.0248 0.0129315 0.00231174 -8.20936e-005 -0.0071 -2.3249 -0.0142 -6.95007e-007 2.12574e-006 -6.89737e-006 -0.6113 -8.7231 -2.0637 -1.10403e-006 -1.51915e-006 -3.17161e-006 0.1927 -3.8059 -0.2383 0.0163298 0.00303428 -0.00087216 0.1091 -2.1688 -0.1362 -3.53113e-031 6.36111e-015 3.18055e-015 0.6151 -8.0947 -3.564 -1.10403e-006 -1.51915e-006 -3.17161e-006 0.4882 -2.341 -0.6462 0.0145071 0.00366916 -0.00324418 0.3574 -1.7166 -0.4742 -2.20434e-006 3.49556e-006 -4.18169e-006 1.4199 -1.8761 1.4221 -1.10403e-006 -1.51915e-006 -3.17161e-006 1.1472 -3.4929 2.6336 -6.36111e-015 -3.18055e-015 -3.18055e-015 0.8229 -2.3 1.6571 -1.07191e-005 -5.55048e-006 2.68601e-006 -9.412 3.9771 -0.7758 -40.2223 34.0641 -26.2426 -0.7531 -40.938 -7.10543e-015 -71.9303 39.0469 72.4114 0 -40.1986 0 19.9011 11.3867 10.0553 0 -4.4182 9.239 -1.58962e-006 -7.48366e-007 1.40232e-007 9.4119 3.9773 -0.7758 40.752 33.7481 26.1493 0.7532 -40.9383 -3.55271e-015 72.4799 39.3336 -72.7689 0 -40.1986 -3.55271e-015 -19.5568 11.2161 -10.7494 1.77636e-015 -4.4182 9.239 -3.17882e-006 1.25699e-006 2.80953e-007 
39.8403 36.0084 21.2401 -179.996 51.0054 -5.151e-008 -7.10543e-015 8.7983 -4.7612 -0.170281 -1.48411 0.139328 -7.10543e-015 8.0291 0.4195 -0.337119 -2.96861 0.274379 7.10543e-015 9.9351 -2.2114 -0.337119 -2.96862 0.274379 -7.10543e-015 22.3885 -0.4656 1.79948e-005 15.9936 -1.22959e-005 -0.0001 12.643 3.4389 3.2829e-007 12.2665 -1.18784e-007 2.2603 21.606 7.4023 6.22891 1.54657 5.67006 13.5163 -1.1332 -5.0146 99.5974 31.7222 -53.3956 -0.0995 -28.05 -0.2431 -39.399 -32.402 -75.9566 0.0679 -23.3996 -0.1402 1.74531 7.89116 1.39048 0.7932 -9.069 2.5189 -2.38474e-006 2.27248e-006 -1.88281e-006 -0.8272 -3.3923 0.5977 9.64318e-006 -5.89626e-006 -2.10168e-006 -0.5649 -2.3158 0.4082 -2.40007e-006 7.66517e-006 -4.04939e-006 0.9159 -9.2044 0.2193 -2.38474e-006 2.27248e-006 -1.88281e-006 0.0117 -4.1944 -0.0248 -0.0128124 0.0023229 8.53453e-005 0.0071 -2.3249 -0.0142 9.71777e-006 -2.02307e-006 -3.66786e-006 0.6113 -8.7231 -2.0637 -2.38474e-006 2.27248e-006 -1.88281e-006 -0.1927 -3.8059 -0.2383 -0.016055 0.00298536 0.000854427 -0.1091 -2.1688 -0.1362 1.20701e-006 3.12063e-006 3.10808e-006 -0.6151 -8.0947 -3.5641 -2.38474e-006 2.27248e-006 -1.88281e-006 -0.4882 -2.341 -0.6462 -0.012604 0.00311986 0.00283285 -0.3575 -1.7167 -0.4742 1.19249e-006 1.59028e-014 9.41431e-007 -1.42 -1.8761 1.4223 -2.38474e-006 2.27248e-006 -1.88281e-006 -1.1471 -3.4929 2.6334 9.64318e-006 -5.89626e-006 -2.10168e-006 -0.823 -2.3 1.6571 -2.40007e-006 7.66517e-006 -4.04939e-006 -2.2603 21.606 7.4023 -7.01223 1.97029 -11.1123 -13.5187 -1.1334 -5.0155 -99.9385 26.366 52.9835 0.0994 -28.0499 -0.2431 39.0802 -34.1267 75.9478 -0.0679 -23.3996 -0.1402 -1.7157 7.91898 -1.28874 -0.7932 -9.0691 2.5189 2.21411e-006 7.67963e-006 2.0066e-006 0.8272 -3.3923 0.5977 -2.22228e-006 -1.25399e-006 -4.17303e-006 0.565 -2.3158 0.4082 -6.36111e-015 -3.18055e-015 6.36111e-015 -0.916 -9.2044 0.2193 2.21411e-006 7.67963e-006 2.0066e-006 -0.0117 -4.1944 -0.0248 0.0129345 0.00232306 -8.73761e-005 -0.0071 -2.3249 -0.0142 -3.3216e-006 -2.59683e-006 -3.01003e-006 -0.6113 -8.7231 -2.0637 2.21411e-006 7.67963e-006 2.0066e-006 0.1927 -3.8059 -0.2383 0.0163173 0.00301929 -0.000879226 0.1091 -2.1688 -0.1362 -3.53113e-031 3.18055e-015 6.36111e-015 0.6151 -8.0947 -3.564 2.21411e-006 7.67963e-006 2.0066e-006 0.4882 -2.341 -0.6462 0.0145832 0.00367335 -0.00326696 0.3574 -1.7166 -0.4742 5.29669e-031 9.54166e-015 -3.18055e-015 1.4199 -1.8761 1.4221 2.21411e-006 7.67963e-006 2.0066e-006 1.1472 -3.4929 2.6336 -2.22228e-006 -1.25399e-006 -4.17303e-006 0.8229 -2.3 1.6571 -6.36111e-015 -3.18055e-015 6.36111e-015 -9.412 3.9771 -0.7758 -40.9292 33.8143 -26.5804 -0.7531 -40.938 7.10543e-015 -71.9261 39.0463 72.3952 0 -40.1986 7.10543e-015 19.086 11.5906 10.8537 -7.10543e-015 -4.4182 9.239 4.17024e-006 3.00743e-007 -1.72086e-006 9.4119 3.9773 -0.7758 41.2528 33.5687 26.4315 0.7532 -40.9383 0 72.4782 39.3334 -72.7586 -1.77636e-015 -40.1986 -1.77636e-015 -18.975 11.3667 -11.3215 8.88178e-016 -4.4182 9.239 3.3358e-006 1.17503e-007 1.50555e-006 
39.8406 36.0082 21.2403 -179.996 51.0054 -5.63132e-008 -7.10543e-015 8.7983 -4.7612 -0.170624 -1.55056 0.138721 7.10543e-015 8.0291 0.4195 -0.337675 -3.10149 0.27297 -7.10543e-015 9.9351 -2.2114 -0.337675 -3.10149 0.27297 7.10543e-015 22.3885 -0.4656 1.06283e-005 15.9935 -7.17136e-006 -0.0001 12.643 3.4389 1.43415e-007 13.5394 -8.0904e-008 2.2603 21.606 7.4023 6.29658 1.6462 5.95711 13.5163 -1.1332 -5.0146 99.5959 31.7092 -53.3939 -0.0995 -28.05 -0.2431 -39.3989 -32.402 -75.9566 0.0679 -23.3996 -0.1402 1.74084 7.73495 1.13229 0.7932 -9.069 2.5189 9.54166e-015 -9.54166e-015 7.95139e-015 -0.8272 -3.3923 0.5977 3.59483e-006 -9.01687e-007 2.8029e-006 -0.5649 -2.3158 0.4082 1.27222e-014 9.54166e-015 1.59028e-015 0.9159 -9.2044 0.2193 9.54166e-015 -9.54166e-015 7.95139e-015 0.0117 -4.1944 -0.0248 -0.0128369 0.00233258 8.61313e-005 0.0071 -2.3249 -0.0142 -1.19841e-006 -1.04617e-006 -9.34347e-007 0.6113 -8.7231 -2.0637 9.54166e-015 -9.54166e-015 7.95139e-015 -0.1927 -3.8059 -0.2383 -0.0160418 0.002992 0.000855965 -0.1091 -2.1688 -0.1362 0 0 -1.59028e-015 -0.6151 -8.0947 -3.5641 9.54166e-015 -9.54166e-015 7.95139e-015 -0.4882 -2.341 -0.6462 -0.0125693 0.00311388 0.0028212 -0.3575 -1.7167 -0.4742 -7.24173e-006 3.62951e-006 4.02112e-006 -1.42 -1.8761 1.4223 9.54166e-015 -9.54166e-015 7.95139e-015 -1.1471 -3.4929 2.6334 3.59483e-006 -9.01687e-007 2.8029e-006 -0.823 -2.3 1.6571 1.27222e-014 9.54166e-015 1.59028e-015 -2.2603 21.606 7.4023 -7.06959 2.06561 -11.3825 -13.5187 -1.1334 -5.0155 -99.9386 26.366 52.9835 0.0994 -28.0499 -0.2431 39.0802 -34.1267 75.9478 -0.0679 -23.3996 -0.1402 -1.71486 7.7685 -1.02595 -0.7932 -9.0691 2.5189 1.12668e-006 -2.17671e-006 3.16778e-006 0.8272 -3.3923 0.5977 -5.29669e-031 -9.54166e-015 -3.18055e-015 0.565 -2.3158 0.4082 2.22654e-006 2.57558e-006 1.9932e-006 -0.916 -9.2044 0.2193 1.12668e-006 -2.17671e-006 3.16778e-006 -0.0117 -4.1944 -0.0248 0.0129466 0.00232301 -9.54971e-005 -0.0071 -2.3249 -0.0142 -2.20138e-006 -5.25945e-007 2.34909e-006 -0.6113 -8.7231 -2.0637 1.12668e-006 -2.17671e-006 3.16778e-006 0.1927 -3.8059 -0.2383 0.0163443 0.00303884 -0.000878151 0.1091 -2.1688 -0.1362 1.25445e-008 -2.19685e-006 2.17123e-006 0.6151 -8.0947 -3.564 1.12668e-006 -2.17671e-006 3.16778e-006 0.4882 -2.341 -0.6462 0.0146523 0.00368343 -0.00327935 0.3574 -1.7166 -0.4742 1.59028e-014 3.18055e-015 -9.54166e-015 1.4199 -1.8761 1.4221 1.12668e-006 -2.17671e-006 3.16778e-006 1.1472 -3.4929 2.6336 -5.29669e-031 -9.54166e-015 -3.18055e-015 0.8229 -2.3 1.6571 2.22654e-006 2.57558e-006 1.9932e-006 -9.412 3.9771 -0.7758 -41.6366 33.5676 -26.9213 -0.7531 -40.938 0 -71.9218 39.0456 72.379 0 -40.1986 -1.42109e-014 18.2664 11.7833 11.6566 0 -4.4182 9.239 -3.93181e-006 -6.2595e-007 -2.80412e-006 9.4119 3.9773 -0.7758 41.7539 33.3913 26.7153 0.7532 -40.9383 1.77636e-015 72.4763 39.3331 -72.7483 1.77636e-015 -40.1986 1.77636e-015 -18.391 11.5116 -11.8957 0 -4.4182 9.239 9.73843e-007 1.9924e-007 2.84128e-006 
